<svg width="68" height="55" viewBox="0 0 68 55" fill="none" xmlns="http://www.w3.org/2000/svg">
<path d="M60.8197 4.81303H28.4056L20.9086 0.443578C20.411 0.153345 19.847 0.000404466 19.2728 1.02299e-07H7.18032C6.50008 -0.000136017 5.82647 0.135569 5.19797 0.399365C4.56948 0.663161 3.99839 1.04988 3.51734 1.53744C3.03629 2.025 2.6547 2.60384 2.39435 3.24092C2.134 3.87799 2 4.56082 2 5.25039V44.7496C2 45.4392 2.134 46.122 2.39435 46.7591C2.6547 47.3962 3.03629 47.975 3.51734 48.4626C3.99839 48.9501 4.56948 49.3368 5.19797 49.6006C5.82647 49.8644 6.50008 50.0001 7.18032 50H60.8197C61.4999 50.0001 62.1735 49.8644 62.802 49.6006C63.4305 49.3368 64.0016 48.9501 64.4827 48.4626C64.9637 47.975 65.3453 47.3962 65.6056 46.7591C65.866 46.122 66 45.4392 66 44.7496V10.0645C66 8.6717 65.4542 7.33598 64.4827 6.35114C63.5112 5.36631 62.1936 4.81303 60.8197 4.81303Z" fill="url(#paint0_linear)"/>
<g filter="url(#filter0_d)">
<path d="M60.8197 10H7.18032C4.31931 10 2 12.1853 2 14.8811V47.1189C2 49.8147 4.31931 52 7.18032 52H60.8197C63.6807 52 66 49.8147 66 47.1189V14.8811C66 12.1853 63.6807 10 60.8197 10Z" fill="url(#paint1_linear)"/>
</g>
<defs>
<filter id="filter0_d" x="0" y="9" width="68" height="46" filterUnits="userSpaceOnUse" color-interpolation-filters="sRGB">
<feFlood flood-opacity="0" result="BackgroundImageFix"/>
<feColorMatrix in="SourceAlpha" type="matrix" values="0 0 0 0 0 0 0 0 0 0 0 0 0 0 0 0 0 0 127 0"/>
<feOffset dy="1"/>
<feGaussianBlur stdDeviation="1"/>
<feColorMatrix type="matrix" values="0 0 0 0 0 0 0 0 0 0 0 0 0 0 0 0 0 0 0.25 0"/>
<feBlend mode="normal" in2="BackgroundImageFix" result="effect1_dropShadow"/>
<feBlend mode="normal" in="SourceGraphic" in2="effect1_dropShadow" result="shape"/>
</filter>
<linearGradient id="paint0_linear" x1="34" y1="-6.99569" x2="34" y2="19.3288" gradientUnits="userSpaceOnUse">
<stop stop-color="#05E1A3"/>
<stop offset="1" stop-color="#318CC0"/>
</linearGradient>
<linearGradient id="paint1_linear" x1="34.0391" y1="79.3258" x2="34.0391" y2="-19.5748" gradientUnits="userSpaceOnUse">
<stop offset="0.287301" stop-color="#1FCBE1"/>
<stop offset="0.859375" stop-color="#05E1A3"/>
<stop offset="0.889914" stop-color="white"/>
</linearGradient>
</defs>
</svg>
